<?xml version="1.0" encoding="utf-8"?>
<!-- Generator: Adobe Illustrator 26.0.1, SVG Export Plug-In . SVG Version: 6.00 Build 0)  -->
<svg version="1.1" id="Layer_1" xmlns="http://www.w3.org/2000/svg" xmlns:xlink="http://www.w3.org/1999/xlink" x="0px" y="0px"
	 viewBox="0 0 768 250" style="enable-background:new 0 0 768 250;" xml:space="preserve">
<style type="text/css">
	.st0{fill:#6483BB;}
	.st1{fill:none;}
	.st2{fill:#010101;}
	.st3{font-family:'MyriadPro-Regular';}
	.st4{font-size:39.6653px;}
	.st5{letter-spacing:1;}
	.st6{font-size:31.128px;}
	.st7{font-size:30.8545px;}
	.st8{letter-spacing:1.01;}
</style>
<g>
	<g id="Layer_2_00000174593238788129166680000008825209033474261941_">
		<path class="st0" d="M305.59,16.54l19.75,10.43c1.2,0.63,2.63,0.85,3.93,0.5c1.41-0.38,3.01-1.45,4.09-4.07
			c0.45-1.07,0.43-2.28-0.01-3.38c-0.32-0.8-0.78-1.8-1.43-2.85c-1.5-2.41-0.65-5.46,1.97-6.72c3.48-1.66,9.21-2.32,17.86,2.35
			c7.52,4.07,10.2,8.05,10.92,11.16c0.7,3.07-1.98,5.87-5.35,5.68c-2.97-0.17-6.5-0.06-7.08,1.33c-1.02,2.48-5.51,7.22,1.28,10.81
			l20.16,10.65c5.85,3.08,7.98,9.92,4.76,15.28l-12.18,20.27c-0.79,1.32-2.2,2.22-3.83,2.39c-2.31,0.25-5.33-0.38-6.31-4.99
			c-0.09-0.42-0.12-0.84-0.09-1.27l0.12-1.58c0.22-3.03-2.59-5.59-5.84-5.27c-3.95,0.4-9.11,3.12-13.36,12.88
			c-2.29,5.25-3.06,8.91-2.98,11.46c0.12,3.86,4.93,6.12,8.3,3.91c3.47-2.26,9.55-4.98,11.53,2.12c0.33,1.18,0.13,2.43-0.5,3.49
			l-15.04,25.03c-1.4,2.33-4.59,3.13-7.13,1.78l-27.1-14.31c-1.21-0.64-2.63-0.83-3.95-0.5c-3.24,0.81-8.41,3.04-3.9,8.72
			c0.38,0.49,0.68,1.02,0.85,1.6c0.96,3.17,2.79,12.64-11.59,7.95s-18.43-12.75-19.37-15.22c-0.22-0.57-0.32-1.17-0.29-1.77
			c0.1-1.86,1.24-5.5,8.85-4.29c2.6,0.42,5.16-0.97,5.86-3.3c0.68-2.26,0.22-4.98-4.35-6.87c-0.17-0.07-0.33-0.14-0.49-0.22
			l-26.21-13.84c-2.54-1.34-3.47-4.32-2.07-6.65l15.49-25.78c0.63-1.05,1.66-1.84,2.9-2.2c3.22-0.95,9.06-1.38,8.68,8.19
			c-0.04,0.93,0.19,1.85,0.7,2.66c1.71,2.74,6.76,6.7,19.12-7.36c0.26-0.3,0.49-0.63,0.66-0.98c1.24-2.46,5.82-12.56-0.17-16.54
			c-1.9-1.27-4.46-1.17-6.27,0.13c-2.78,2.02-7.93,4.57-11.22-0.95c-0.86-1.44-0.9-3.17-0.09-4.61l11.34-20.22
			C290.09,15.2,298.72,12.91,305.59,16.54z"/>
		<path class="st0" d="M532.84,186.03l-16.8,14.38c-1.02,0.88-1.68,2.1-1.7,3.44c-0.02,1.44,0.62,3.29,3.05,5.25
			c1,0.8,2.26,1.22,3.54,1.22c0.93,0,2.12-0.06,3.4-0.28c2.97-0.51,5.92,1.38,6.46,4.25c0.71,3.8-0.29,9.31-7.77,15.57
			c-6.5,5.44-11.47,6.47-14.94,5.99c-3.43-0.47-5.57-3.95-4.36-6.99c1.06-2.67,2-5.96,0.7-6.99c-2.3-1.84-5.93-7.7-11.71-2.75
			l-17.15,14.68c-4.97,4.25-12.78,3.74-17.43-1.16l-17.63-18.57c-1.15-1.2-1.67-2.83-1.38-4.39c0.42-2.21,1.98-4.76,7.11-4
			c0.47,0.07,0.92,0.2,1.36,0.38l1.62,0.68c3.11,1.3,6.63-0.35,7.25-3.46c0.76-3.77-0.57-9.52-9.53-16.97
			c-4.83-4.02-8.44-6.05-11.13-6.91c-4.09-1.3-7.88,2.31-6.56,6.22c1.34,4.01,2.38,10.59-5.64,9.85c-1.34-0.13-2.59-0.76-3.51-1.73
			l-21.77-22.93c-2.02-2.13-1.91-5.36,0.25-7.21l23.05-19.74c1.03-0.88,1.64-2.12,1.7-3.45c0.12-3.28-0.69-8.84-7.98-6.76
			c-0.62,0.18-1.27,0.25-1.93,0.2c-3.6-0.27-14.07-2.02-4.89-13.55c9.19-11.52,18.84-12.33,21.71-12.29
			c0.66,0.01,1.32,0.13,1.94,0.38c1.93,0.77,5.4,3.14,1.86,9.71c-1.21,2.25-0.52,5.1,1.72,6.6c2.16,1.45,5.16,2.02,8.49-1.51
			c0.12-0.13,0.24-0.25,0.38-0.36l22.31-19.1c2.16-1.85,5.56-1.62,7.58,0.51l22.42,23.61c0.91,0.96,1.43,2.19,1.45,3.47
			c0.04,3.3-1.25,8.84-11.16,5c-0.96-0.37-2-0.49-2.99-0.33c-3.39,0.58-9.03,3.78,2.04,20.26c0.24,0.35,0.51,0.68,0.83,0.97
			c2.21,2.03,11.45,9.92,17.4,5.86c1.89-1.29,2.55-3.67,1.72-5.82c-1.29-3.29-2.43-8.96,4.33-9.98c1.77-0.27,3.59,0.33,4.86,1.59
			l17.82,17.77C538.85,172.25,538.68,181.02,532.84,186.03z"/>
		<rect x="365.52" y="94.25" class="st1" width="47.27" height="52.93"/>
		<text transform="matrix(1 0 0 1 365.5191 122.4136)" class="st2 st3 st4 st5">BY</text>
		<text transform="matrix(0.7163 -0.6946 0.741 0.6715 287.7982 109.4954)" class="st2 st3 st6 st5">Piece</text>
		<text transform="matrix(0.6647 0.7365 -0.7756 0.6312 436.1865 146.786)" class="st2 st3 st7 st8">Piece</text>
	</g>
</g>
</svg>
